<svg width="815" height="111" viewBox="0 0 815 111" fill="none" xmlns="http://www.w3.org/2000/svg">
<g id="logo">
<path id="apptractive." fill-rule="evenodd" clip-rule="evenodd" d="M400.191 7V26.6H408.635V39.9492H400.191V85.4H382.67V39.9492H374.015V26.6H382.67V7H400.191ZM219.28 85.4V26.6H201.758V32.8508H201.547C199.436 29.2486 194.053 24.587 184.448 24.587C168.827 24.587 155 36.6649 155 55.947C155 72.7924 165.872 87.413 184.448 87.413C191.309 87.413 198.592 84.7643 201.547 79.0432H201.758V85.4H219.28ZM187.087 70.9913C176.532 70.9913 172.521 61.6681 172.521 56.1589C172.521 49.4843 176.954 41.0086 186.981 41.0086C196.903 41.0086 201.758 48.8486 201.758 55.947C201.758 61.6681 198.064 70.9913 187.087 70.9913ZM232.051 105V26.6H248.517V33.0627H248.833C252.316 28.613 258.122 24.587 267.093 24.587C287.887 24.587 295.697 42.9157 295.697 56.5827C295.697 73.5341 283.876 87.413 267.199 87.413C256.644 87.413 251.683 82.3276 249.572 80.1027V105H232.051ZM278.176 56.053C278.176 63.4692 272.688 70.9913 263.505 70.9913C254.322 70.9913 248.833 63.4692 248.833 56.053C248.833 49.0605 253.9 41.0086 263.505 41.0086C273.11 41.0086 278.176 49.0605 278.176 56.053ZM305.619 105V26.6H322.085V33.0627H322.401C325.884 28.613 331.69 24.587 340.661 24.587C361.454 24.587 369.265 42.9157 369.265 56.5827C369.265 73.5341 357.444 87.413 340.767 87.413C330.212 87.413 325.251 82.3276 323.14 80.1027V105H305.619ZM351.744 56.053C351.744 63.4692 346.255 70.9913 337.073 70.9913C327.89 70.9913 322.401 63.4692 322.401 56.053C322.401 49.0605 327.468 41.0086 337.073 41.0086C346.678 41.0086 351.744 49.0605 351.744 56.053ZM416.129 26.6V85.4H433.65V53.0865C433.65 44.187 439.35 42.4919 447.477 42.28V24.587C437.344 24.587 434.284 29.9903 432.806 32.8508H432.595V26.6H416.129ZM516.084 26.6V85.4H498.563V79.0432H498.352C495.397 84.7643 488.114 87.413 481.253 87.413C462.676 87.413 451.805 72.7924 451.805 55.947C451.805 36.6649 465.632 24.587 481.253 24.587C490.858 24.587 496.241 29.2486 498.352 32.8508H498.563V26.6H516.084ZM483.892 70.9913C473.337 70.9913 469.326 61.6681 469.326 56.1589C469.326 49.4843 473.759 41.0086 483.786 41.0086C493.708 41.0086 498.563 48.8486 498.563 55.947C498.563 61.6681 494.869 70.9913 483.892 70.9913ZM570.231 63.0454H588.069C584.902 76.3946 573.186 87.307 557.354 87.307C539.622 87.307 526.006 73.3222 526.006 55.8411C526.006 38.5719 539.411 24.587 556.932 24.587C572.448 24.587 585.008 34.8638 587.963 49.2724H570.231C568.331 45.2465 564.848 41.0086 557.565 41.0086C549.227 40.5849 543.633 47.4714 543.633 55.947C543.633 64.5286 549.227 70.8854 557.565 70.8854C564.848 70.8854 568.331 66.6476 570.231 63.0454ZM618.678 26.6V7H601.157V26.6H592.502V39.9492H601.157V85.4H618.678V39.9492H627.122V26.6H618.678ZM652.243 26.6V85.4H634.722V26.6H652.243ZM652.243 20.3492V7H634.722V20.3492H652.243ZM719.267 26.6L698.157 85.4H681.375L660.37 26.6H678.525L689.713 63.2573H689.924L701.112 26.6H719.267ZM783.863 66.9654H765.92C763.492 70.0378 760.642 72.4746 755.259 72.4746C748.398 72.4746 742.593 68.3427 741.538 61.3503H785.446C785.457 61.2823 785.467 61.2154 785.477 61.1493C785.496 61.0333 785.514 60.9199 785.532 60.8078C785.711 59.6884 785.868 58.7027 785.868 56.6887C785.868 38.7838 772.78 24.587 754.942 24.587C737.105 24.587 724.228 39.7373 724.228 56.1589C724.228 73.64 738.477 87.307 755.259 87.307C761.275 87.307 767.081 85.5059 771.936 82.0097C776.897 78.6195 781.013 73.5341 783.863 66.9654ZM768.347 49.4843C767.608 45.9881 764.125 39.4195 755.048 39.4195C745.971 39.4195 742.488 45.9881 741.749 49.4843H768.347ZM815 85.4V67.3892H796.74V85.4H815Z" fill="#1F2739"/>
<rect id="Rectangle-11" width="112" height="111" rx="15.3919" fill="url(#paint0_linear_0_228)"/>
<path id="Combined-Shape" fill-rule="evenodd" clip-rule="evenodd" d="M84 80.2698V29.7302H68.7356V35.1029H68.5517C66.7126 32.0067 62.023 28 53.6552 28C40.046 28 28 38.3811 28 54.9545C28 69.4334 37.4713 82 53.6552 82C59.6322 82 65.977 79.7234 68.5517 74.8061H68.7356V80.2698H84ZM55.954 67.8853C46.7586 67.8853 43.2644 59.8718 43.2644 55.1366C43.2644 49.3997 47.1264 42.1147 55.8621 42.1147C64.5057 42.1147 68.7356 48.8533 68.7356 54.9545C68.7356 59.8718 65.5172 67.8853 55.954 67.8853Z" fill="white"/>
</g>
<defs>
<linearGradient id="paint0_linear_0_228" x1="-56" y1="52.3876" x2="48.7168" y2="164.325" gradientUnits="userSpaceOnUse">
<stop stop-color="#796EFF"/>
<stop offset="1" stop-color="#B16EFF"/>
</linearGradient>
</defs>
</svg>
